PathFileType	4	(X/Y/Z)	D:\TRACE\v60_Jaco2_6-2-23\JustArmDRS_Motion1_1-v60.trc
DataRate	CameraRate	NumFrames	NumMarkers	Units	OrigDataRate	OrigDataStartFrame	OrigNumFrames
100.00	100.00	      17	9	mm	100.00	1712	      6844
Frame#	Time	front left toe			Front right toe			aft left toe			aft right toe			Arm			FL body			FR body			AL Body			AR Body			
		X1	Y1	Z1	X2	Y2	Z2	X3	Y3	Z3	X4	Y4	Z4	X5	Y5	Z5	X6	Y6	Z6	X7	Y7	Z7	X8	Y8	Z8	X9	Y9	Z9	

1712	17.110	-173.33685	19.23820	-166.31061	234.44991	18.65370	-210.54419	-106.57274	15.42279	438.58325	295.36389	20.57438	427.07071	7.27460	1209.04590	-504.79480	-67.42144	575.70032	-310.21887	92.36321	576.58478	-326.89902	26.96805	588.45868	629.26794	184.66830	583.90784	615.29272	
1713	17.120	-172.51118	19.36678	-166.20685	235.19142	18.74411	-210.29684	-105.65990	15.09317	438.71237	295.80984	20.32142	426.98727	8.50732	1209.20850	-504.43320	-66.34814	576.01819	-310.04343	93.60046	576.60773	-326.74973	28.73286	588.50757	630.39081	185.72090	583.79865	615.65601	
1714	17.130	-171.99010	19.58804	-165.92749	236.54465	19.00571	-210.02754	-104.87571	14.81006	438.82990	297.05664	19.94042	427.10217	10.26593	1209.38416	-503.92242	-65.03312	575.96289	-310.15149	94.19830	576.39191	-325.67792	29.97152	588.29449	630.65930	186.80908	583.45062	615.82306	
1715	17.140	-170.80643	19.64630	-165.99968	236.98166	18.92660	-210.13609	-103.74847	14.49086	439.01166	298.08997	19.82748	427.27399	11.25669	1209.61609	-503.50018	-63.97107	576.26868	-309.79971	95.18004	576.46747	-325.77448	31.10616	588.02954	630.84412	187.92395	583.07483	615.93457	
1716	17.150	-169.87585	19.72979	-165.99289	237.93015	19.11629	-209.90576	-102.92355	14.15090	439.03708	298.74933	19.57215	427.29666	13.23651	1209.77893	-502.99371	-62.71714	576.47687	-309.59799	97.20118	576.85986	-325.83475	32.24917	587.66748	631.03058	189.28633	582.78070	616.31140	
1717	17.160	-168.96263	19.96894	-165.79002	239.02078	19.44533	-209.62257	-102.12940	13.86484	439.12729	299.78256	18.99446	427.54318	14.57002	1210.03931	-502.59622	-61.22382	576.40234	-309.24142	98.12818	576.88153	-325.81955	33.34945	587.28668	631.19366	190.42461	582.10406	616.44208	
1718	17.170	-168.64380	20.13506	-165.61449	239.43207	19.43678	-209.74344	-101.14844	13.65095	439.23138	300.45270	18.71732	427.59280	16.46734	1210.16101	-502.11380	-60.75422	576.74951	-309.30984	98.90777	576.77972	-325.37567	34.37371	587.07520	631.28784	191.48987	581.77551	616.62268	
1719	17.180	-167.32205	20.18180	-165.51228	240.39265	19.67655	-209.67398	-100.40862	13.32617	439.39804	300.97284	18.45447	427.69330	17.72712	1210.33887	-501.82623	-59.20895	576.90039	-309.16681	100.00100	576.70483	-325.20322	35.70177	586.67810	631.58661	192.44217	581.35608	616.71661	
1720	17.190	-166.52866	20.42266	-165.47719	241.43050	19.90143	-209.58002	-99.58505	12.88379	439.41983	302.26190	18.05308	427.82980	19.45281	1210.66150	-501.17566	-58.56812	577.22382	-308.97424	101.66830	577.05646	-325.36334	36.72529	586.23505	631.74097	193.52554	580.94696	616.96533	
1721	17.200	-165.89207	20.65770	-165.28630	241.92081	19.99740	-209.59230	-98.69199	12.62174	439.46521	303.20087	17.87782	427.81207	20.89031	1211.04956	-500.76813	-57.24421	577.23193	-308.81613	102.78848	577.26776	-325.30438	37.92491	586.02411	632.56647	195.24991	580.92804	617.16559	
1722	17.210	-165.34303	20.81482	-165.10391	242.84688	20.12664	-209.53070	-97.71188	12.38879	439.74057	303.54276	17.54812	427.86444	22.45181	1211.20178	-500.45328	-55.70048	577.53094	-308.49130	103.68060	577.81934	-325.92841	38.89908	585.69293	632.12012	195.79808	580.04376	617.42126	
1723	17.220	-164.17537	20.68452	-165.04639	243.99779	20.43712	-209.19675	-96.94592	12.12911	439.93686	304.36719	16.97945	428.01630	23.85294	1211.76843	-500.09607	-55.06746	577.71301	-308.38828	104.22177	577.39160	-324.24130	40.12671	585.35229	632.45648	196.85948	579.62427	617.49976	
1724	17.230	-163.27353	21.07352	-164.88680	244.25789	20.49643	-209.09401	-96.98457	12.42089	439.72928	305.35944	16.88950	428.16797	25.65022	1212.18811	-499.87628	-54.06194	577.96936	-308.25360	105.64688	577.76959	-324.61313	41.33481	584.98730	632.35681	197.87257	579.17249	617.75739	
1725	17.240	-162.93748	21.37641	-164.62581	245.02550	20.58476	-209.04861	-96.36106	12.21039	439.70901	305.97098	16.54101	428.34311	26.75795	1212.29163	-499.70627	-52.56648	578.22876	-307.84149	107.14207	577.95966	-324.17953	42.18230	584.81116	632.83197	198.38441	578.47742	618.20123	
1726	17.250	-162.28360	21.75756	-164.56377	246.08168	20.80628	-208.80478	-95.92900	12.02472	439.71362	306.41388	15.92976	428.36771	28.49431	1212.39087	-499.55804	-51.98861	578.43146	-307.59836	107.67806	578.17358	-324.20053	43.35345	584.53174	632.97125	199.81216	578.43909	618.47083	
1727	17.260	-161.30838	21.56243	-164.64021	246.70567	20.88224	-208.68660	-95.17300	11.85089	439.77539	307.61172	15.89142	428.41153	29.84846	1212.55518	-499.51160	-51.03323	578.73743	-307.35849	108.68771	578.16132	-323.45020	44.37461	584.28455	633.34906	200.97150	578.03571	618.32935	
1728	17.270	-160.38239	21.66574	-164.50533	247.07420	20.96888	-208.72180	-94.48449	11.55641	439.83020	308.25223	15.49770	428.56137	31.50077	1212.58716	-499.37280	-49.74127	578.99915	-307.16446	109.29259	578.30164	-323.46713	45.57251	584.01331	633.56903	202.21370	577.81494	618.46393	
